<?xml version="1.0" encoding="UTF-8" standalone="no"?>
<!-- Created with Inkscape (http://www.inkscape.org/) -->

<svg
   xmlns:dc="http://purl.org/dc/elements/1.1/"
   xmlns:cc="http://creativecommons.org/ns#"
   xmlns:rdf="http://www.w3.org/1999/02/22-rdf-syntax-ns#"
   xmlns:svg="http://www.w3.org/2000/svg"
   xmlns="http://www.w3.org/2000/svg"
   xmlns:sodipodi="http://sodipodi.sourceforge.net/DTD/sodipodi-0.dtd"
   xmlns:inkscape="http://www.inkscape.org/namespaces/inkscape"
   width="744.09003"
   height="300"
   id="svg2"
   version="1.1"
   inkscape:version="0.48.5 r10040"
   sodipodi:docname="uie_logo.svg">
  <defs
     id="defs4">
    <inkscape:perspective
       sodipodi:type="inkscape:persp3d"
       inkscape:vp_x="0 : 526.18109 : 1"
       inkscape:vp_y="0 : 1000 : 0"
       inkscape:vp_z="744.09448 : 526.18109 : 1"
       inkscape:persp3d-origin="372.04724 : 350.78739 : 1"
       id="perspective10" />
    <inkscape:perspective
       id="perspective2824"
       inkscape:persp3d-origin="0.5 : 0.33333333 : 1"
       inkscape:vp_z="1 : 0.5 : 1"
       inkscape:vp_y="0 : 1000 : 0"
       inkscape:vp_x="0 : 0.5 : 1"
       sodipodi:type="inkscape:persp3d" />
    <inkscape:perspective
       id="perspective3629"
       inkscape:persp3d-origin="372.04724 : 350.78739 : 1"
       inkscape:vp_z="744.09448 : 526.18109 : 1"
       inkscape:vp_y="0 : 1000 : 0"
       inkscape:vp_x="0 : 526.18109 : 1"
       sodipodi:type="inkscape:persp3d" />
    <inkscape:perspective
       id="perspective2874"
       inkscape:persp3d-origin="0.5 : 0.33333333 : 1"
       inkscape:vp_z="1 : 0.5 : 1"
       inkscape:vp_y="0 : 1000 : 0"
       inkscape:vp_x="0 : 0.5 : 1"
       sodipodi:type="inkscape:persp3d" />
    <inkscape:perspective
       id="perspective2908"
       inkscape:persp3d-origin="0.5 : 0.33333333 : 1"
       inkscape:vp_z="1 : 0.5 : 1"
       inkscape:vp_y="0 : 1000 : 0"
       inkscape:vp_x="0 : 0.5 : 1"
       sodipodi:type="inkscape:persp3d" />
    <inkscape:perspective
       id="perspective3020"
       inkscape:persp3d-origin="0.5 : 0.33333333 : 1"
       inkscape:vp_z="1 : 0.5 : 1"
       inkscape:vp_y="0 : 1000 : 0"
       inkscape:vp_x="0 : 0.5 : 1"
       sodipodi:type="inkscape:persp3d" />
    <inkscape:perspective
       id="perspective3020-6"
       inkscape:persp3d-origin="0.5 : 0.33333333 : 1"
       inkscape:vp_z="1 : 0.5 : 1"
       inkscape:vp_y="0 : 1000 : 0"
       inkscape:vp_x="0 : 0.5 : 1"
       sodipodi:type="inkscape:persp3d" />
    <inkscape:perspective
       id="perspective3020-3"
       inkscape:persp3d-origin="0.5 : 0.33333333 : 1"
       inkscape:vp_z="1 : 0.5 : 1"
       inkscape:vp_y="0 : 1000 : 0"
       inkscape:vp_x="0 : 0.5 : 1"
       sodipodi:type="inkscape:persp3d" />
    <inkscape:perspective
       id="perspective3020-67"
       inkscape:persp3d-origin="0.5 : 0.33333333 : 1"
       inkscape:vp_z="1 : 0.5 : 1"
       inkscape:vp_y="0 : 1000 : 0"
       inkscape:vp_x="0 : 0.5 : 1"
       sodipodi:type="inkscape:persp3d" />
    <inkscape:perspective
       id="perspective3020-8"
       inkscape:persp3d-origin="0.5 : 0.33333333 : 1"
       inkscape:vp_z="1 : 0.5 : 1"
       inkscape:vp_y="0 : 1000 : 0"
       inkscape:vp_x="0 : 0.5 : 1"
       sodipodi:type="inkscape:persp3d" />
    <inkscape:perspective
       id="perspective3020-9"
       inkscape:persp3d-origin="0.5 : 0.33333333 : 1"
       inkscape:vp_z="1 : 0.5 : 1"
       inkscape:vp_y="0 : 1000 : 0"
       inkscape:vp_x="0 : 0.5 : 1"
       sodipodi:type="inkscape:persp3d" />
    <inkscape:perspective
       id="perspective3020-64"
       inkscape:persp3d-origin="0.5 : 0.33333333 : 1"
       inkscape:vp_z="1 : 0.5 : 1"
       inkscape:vp_y="0 : 1000 : 0"
       inkscape:vp_x="0 : 0.5 : 1"
       sodipodi:type="inkscape:persp3d" />
    <inkscape:perspective
       id="perspective3020-0"
       inkscape:persp3d-origin="0.5 : 0.33333333 : 1"
       inkscape:vp_z="1 : 0.5 : 1"
       inkscape:vp_y="0 : 1000 : 0"
       inkscape:vp_x="0 : 0.5 : 1"
       sodipodi:type="inkscape:persp3d" />
    <inkscape:perspective
       id="perspective3020-97"
       inkscape:persp3d-origin="0.5 : 0.33333333 : 1"
       inkscape:vp_z="1 : 0.5 : 1"
       inkscape:vp_y="0 : 1000 : 0"
       inkscape:vp_x="0 : 0.5 : 1"
       sodipodi:type="inkscape:persp3d" />
    <inkscape:perspective
       id="perspective3020-2"
       inkscape:persp3d-origin="0.5 : 0.33333333 : 1"
       inkscape:vp_z="1 : 0.5 : 1"
       inkscape:vp_y="0 : 1000 : 0"
       inkscape:vp_x="0 : 0.5 : 1"
       sodipodi:type="inkscape:persp3d" />
  </defs>
  <sodipodi:namedview
     id="base"
     pagecolor="#ffffff"
     bordercolor="#666666"
     borderopacity="1.0"
     inkscape:pageopacity="0.0"
     inkscape:pageshadow="2"
     inkscape:zoom="0.42285822"
     inkscape:cx="294.0069"
     inkscape:cy="242.39803"
     inkscape:document-units="px"
     inkscape:current-layer="layer1"
     showgrid="false"
     showguides="true"
     inkscape:guide-bbox="true"
     inkscape:window-width="1366"
     inkscape:window-height="719"
     inkscape:window-x="0"
     inkscape:window-y="25"
     inkscape:window-maximized="1" />
  <metadata
     id="metadata7">
    <rdf:RDF>
      <cc:Work
         rdf:about="">
        <dc:format>image/svg+xml</dc:format>
        <dc:type
           rdf:resource="http://purl.org/dc/dcmitype/StillImage" />
        <dc:title></dc:title>
      </cc:Work>
    </rdf:RDF>
  </metadata>
  <g
     inkscape:label="Livello 1"
     inkscape:groupmode="layer"
     id="layer1"
     transform="translate(0,-752.36218)">
    <g
       id="g3247"
       transform="matrix(1.0929528,0,0,1.0929528,-35.317346,705.70877)">
      <path
         transform="matrix(-4.53265,0,0,-4.53265,2028.1077,3195.6579)"
         style="fill:#ff6600;fill-opacity:1;fill-rule:nonzero;stroke:none;stroke-width:0.1;marker:none;visibility:visible;display:inline;overflow:visible;enable-background:accumulate"
         d="m 315,670.73718 c 0,4.62539 -3.74962,8.375 -8.375,8.375 -4.62538,0 -8.375,-3.74961 -8.375,-8.375 0,0 0,0 0,0 l 8.375,0 z"
         id="path10760"
         inkscape:connector-curvature="0" />
      <path
         transform="matrix(-4.53265,0,0,-4.53265,1832.5675,3195.6579)"
         style="fill:#0088aa;fill-opacity:0.99904151;fill-rule:nonzero;stroke:none;stroke-width:0.1;marker:none;visibility:visible;display:inline;overflow:visible;enable-background:accumulate"
         d="m 315,670.73718 c 0,4.62539 -3.74962,8.375 -8.375,8.375 -4.62538,0 -8.375,-3.74961 -8.375,-8.375 0,0 0,0 0,0 l 8.375,0 z"
         id="path10762"
         inkscape:connector-curvature="0" />
      <path
         transform="matrix(-4.53265,0,0,-4.53265,1930.3063,3195.6579)"
         style="fill:#89a02c;fill-opacity:1;fill-rule:nonzero;stroke:none;stroke-width:0.1;marker:none;visibility:visible;display:inline;overflow:visible;enable-background:accumulate"
         d="m 315,670.73718 c 0,4.62539 -3.74962,8.375 -8.375,8.375 -4.62538,0 -8.375,-3.74961 -8.375,-8.375 0,0 0,0 0,0 l 8.375,0 z"
         id="path10764"
         inkscape:connector-curvature="0" />
      <g
         style="font-size:138.24337769px;font-style:normal;font-variant:normal;font-weight:normal;font-stretch:normal;fill:#000000;fill-opacity:1;stroke:none;font-family:DejaVu Sans;-inkscape-font-specification:DejaVu Sans"
         id="text10766">
        <path
           d="m 69.189657,210.98875 0,-46.17113 24.300593,0 0,7.56018 c -3.5e-5,4.09517 -0.02254,9.24779 -0.0675,15.45788 -0.04504,6.1652 -0.06754,10.28279 -0.0675,12.3528 -3.5e-5,6.07518 0.157469,10.46279 0.472512,13.16282 0.314972,2.65509 0.854984,4.59014 1.620039,5.80514 0.989986,1.57506 2.272516,2.79009 3.847594,3.64509 1.619995,0.85504 3.465035,1.28255 5.535135,1.28253 5.04007,2e-5 9.00016,-1.93502 11.88029,-5.80514 2.88001,-3.87007 4.32004,-9.24769 4.3201,-16.13289 l 0,-37.32841 24.16559,0 0,75.60184 -24.16559,0 0,-10.93526 c -3.64514,4.41011 -7.51524,7.67269 -11.61028,9.78774 -4.05015,2.07005 -8.52775,3.10507 -13.432826,3.10507 -8.730242,0 -15.390398,-2.67756 -19.980488,-8.03269 -4.545124,-5.35512 -6.817677,-13.14031 -6.817666,-23.35557"
           style="font-weight:bold;fill:#000000;-inkscape-font-specification:DejaVu Sans Bold"
           id="path3010"
           inkscape:connector-curvature="0" />
        <path
           d="m 168.55208,164.81762 24.16559,0 0,75.60184 -24.16559,0 0,-75.60184 m 0,-29.43072 24.16559,0 0,19.71048 -24.16559,0 0,-19.71048"
           style="font-weight:bold;fill:#000000;-inkscape-font-specification:DejaVu Sans Bold"
           id="path3012"
           inkscape:connector-curvature="0" />
        <path
           d="m 291.54008,202.41604 0,6.88516 -56.49888,0 c 0.58499,5.67017 2.63253,9.92277 6.14265,12.75782 3.51005,2.83508 8.41516,4.25261 14.71536,4.2526 5.08507,1e-5 10.28269,-0.7425 15.59288,-2.22756 5.35506,-1.53001 10.84519,-3.82507 16.47041,-6.88516 l 0,18.63045 c -5.71522,2.16006 -11.43036,3.7801 -17.14542,4.86012 -5.7152,1.12503 -11.43034,1.68754 -17.14542,1.68754 -13.68037,0 -24.32312,-3.46508 -31.92828,-10.39525 -7.5602,-6.97516 -11.34029,-16.74039 -11.34028,-29.29572 -1e-5,-12.33025 3.71258,-22.02798 11.13777,-29.09321 7.47016,-7.0651 17.7304,-10.59768 30.78075,-10.59776 11.88024,8e-5 21.37546,3.57766 28.4857,10.73276 7.15509,7.15524 10.73268,16.71796 10.73276,28.68821 m -24.8406,-8.0327 c -7e-5,-4.59006 -1.3501,-8.28015 -4.0501,-11.07027 -2.65512,-2.83501 -6.1427,-4.25254 -10.46276,-4.25261 -4.68016,7e-5 -8.48274,1.3276 -11.40778,3.9826 -2.9251,2.61012 -4.74764,6.39021 -5.46763,11.34028 l 31.38827,0"
           style="font-weight:bold;fill:#000000;-inkscape-font-specification:DejaVu Sans Bold"
           id="path3014"
           inkscape:connector-curvature="0" />
        <path
           d="m 309.76553,135.3869 24.16559,0 0,105.03256 -24.16559,0 0,-105.03256"
           style="font-weight:bold;fill:#000000;-inkscape-font-specification:DejaVu Sans Bold"
           id="path3016"
           inkscape:connector-curvature="0" />
        <path
           d="m 357.28669,164.81762 24.16559,0 0,75.60184 -24.16559,0 0,-75.60184 m 0,-29.43072 24.16559,0 0,19.71048 -24.16559,0 0,-19.71048"
           style="font-weight:bold;fill:#000000;-inkscape-font-specification:DejaVu Sans Bold"
           id="path3018"
           inkscape:connector-curvature="0" />
        <path
           d="m 480.8147,194.38334 0,46.03612 -24.30059,0 0,-7.49268 0,-27.74318 c -7e-5,-6.52511 -0.15757,-11.02522 -0.47252,-13.50033 -0.27006,-2.47501 -0.76508,-4.29755 -1.48503,-5.46763 -0.94508,-1.57498 -2.22762,-2.79001 -3.8476,-3.64509 -1.62009,-0.89996 -3.46513,-1.34997 -5.53513,-1.35003 -5.04017,6e-5 -9.00026,1.9576 -11.88029,5.87264 -2.88011,3.87015 -4.32014,9.24777 -4.32011,16.1329 l 0,37.1934 -24.16559,0 0,-75.60184 24.16559,0 0,11.07027 c 3.64505,-4.41004 7.51514,-7.65012 11.61029,-9.72024 4.09505,-2.11498 8.61765,-3.1725 13.56783,-3.17258 8.73014,8e-5 15.3453,2.67764 19.84548,8.0327 4.54503,5.35519 6.81758,13.14038 6.81767,23.35557"
           style="font-weight:bold;fill:#000000;-inkscape-font-specification:DejaVu Sans Bold"
           id="path3020"
           inkscape:connector-curvature="0" />
        <path
           d="m 502.55025,210.98875 0,-46.17113 24.3006,0 0,7.56018 c -4e-5,4.09517 -0.0225,9.24779 -0.0675,15.45788 -0.045,6.1652 -0.0675,10.28279 -0.0675,12.3528 -3e-5,6.07518 0.15747,10.46279 0.47251,13.16282 0.31498,2.65509 0.85499,4.59014 1.62004,5.80514 0.98999,1.57506 2.27252,2.79009 3.8476,3.64509 1.62,0.85504 3.46504,1.28255 5.53513,1.28253 5.04007,2e-5 9.00017,-1.93502 11.88029,-5.80514 2.88001,-3.87007 4.32005,-9.24769 4.32011,-16.13289 l 0,-37.32841 24.16559,0 0,75.60184 -24.16559,0 0,-10.93526 c -3.64515,4.41011 -7.51524,7.67269 -11.61028,9.78774 -4.05015,2.07005 -8.52776,3.10507 -13.43283,3.10507 -8.73024,0 -15.3904,-2.67756 -19.98049,-8.03269 -4.54513,-5.35512 -6.81768,-13.14031 -6.81767,-23.35557"
           style="font-weight:bold;fill:#000000;-inkscape-font-specification:DejaVu Sans Bold"
           id="path3022"
           inkscape:connector-curvature="0" />
      </g>
      <g
         transform="scale(0.945367,1.0577902)"
         style="font-size:12.76229382px;font-style:normal;font-variant:normal;font-weight:normal;font-stretch:normal;text-align:center;text-anchor:middle;fill:#000000;fill-opacity:1;stroke:#000000;stroke-width:2.46172023;stroke-linecap:butt;stroke-linejoin:miter;stroke-miterlimit:4;stroke-opacity:1;font-family:Helvetica Neue LT Std;-inkscape-font-specification:Helvetica Neue LT Std"
         id="text2435">
        <path
           d="m 662.53898,190.86853 -24.85913,-33.65828 23.32081,0 14.09094,20.42879 14.27554,-20.42879 23.32082,0 -24.85913,33.53521 26.08978,35.38119 -23.32082,0 -15.50619,-21.78251 -15.32159,21.78251 -23.32081,0 26.08978,-35.25812"
           style="font-size:126.01855469px;font-weight:bold;stroke:#000000;font-family:DejaVu Sans;-inkscape-font-specification:DejaVu Sans Bold"
           id="path3025"
           inkscape:connector-curvature="0" />
      </g>
    </g>
  </g>
</svg>
